<?xml version="1.0" encoding="UTF-8"?>
<svg width="344px" height="420px" viewBox="0 0 344 420" version="1.1" xmlns="http://www.w3.org/2000/svg" xmlns:xlink="http://www.w3.org/1999/xlink">
    <!-- Generator: Sketch 54.1 (76490) - https://sketchapp.com -->
    <title>TREX Copy</title>
    <desc>Created with Sketch.</desc>
    <g id="Page-1" stroke="none" stroke-width="1" fill="none" fill-rule="evenodd">
        <g id="Group-20" transform="translate(-2.000000, -5.000000)" fill-rule="nonzero">
            <g id="TREX-Copy">
                <path d="M188.668117,421.0743 L343.789303,283.621685 C345.410482,282.20252 344.727833,280.628482 341.912019,279.364041 L186.871574,209.123078 C180.557323,206.258734 166.563719,206.258424 160.249595,209.12249 L4.5296446,279.717835 C1.79921317,280.982153 1.11663309,282.556161 2.73787465,283.975398 L158.46241,421.073633 C163.411464,425.434559 183.804582,425.43501 188.668117,421.0743 Z" id="Path" fill="#142982" transform="translate(173.261601, 315.659605) rotate(1.000000) translate(-173.261601, -315.659605) "></path>
                <path d="M191.964045,343.792336 L337.953905,126.763177 C339.479653,124.522404 338.837081,122.03708 336.186839,120.040577 L190.262817,9.13288667 C184.319846,4.61020014 171.14938,4.60961829 165.206808,9.13177973 L18.650137,120.596945 C16.080378,122.593217 15.4380259,125.078484 16.9639714,127.319392 L163.535112,343.79108 C168.193264,350.676778 187.386809,350.677626 191.964045,343.792336 Z" id="Path" fill-opacity="0.535183566" fill="#213CAE" transform="translate(177.456990, 177.348172) rotate(182.000000) translate(-177.456990, -177.348172) "></path>
                <g id="Group" transform="translate(2.000000, 141.000000)" fill="#FFFFFF">
                    <path d="M304.607324,66.738675 C300.57981,62.8393965 297.550104,59.9238809 295.518206,57.9921283 C291.599544,54.2359425 287.517605,50.3187775 282.075019,49.0309424 C269.230517,45.8650144 257.528957,40.1234162 245.718546,34.5427975 C244.847733,34.1671789 244.085771,33.7379005 243.487086,32.9866634 C236.411725,24.2401167 227.050477,18.4448587 217.471526,12.6496008 C210.994849,8.73243568 204.844728,4.54697161 197.497237,2.29326018 C194.558241,1.38104366 191.728096,0.200528147 188.571396,0.0395487599 C183.237662,-0.228750219 178.121632,0.898105493 173.114453,2.50789937 C171.04627,3.15181692 168.923662,3.74207467 166.801053,4.22501283 C163.753205,4.92259018 160.705357,5.40552834 157.548658,5.56650773 C157.167677,5.56650773 156.841121,5.62016753 156.46014,5.62016753 C152.704756,5.72748712 151.670665,6.21042528 151.34411,9.21537385 L148.132984,10.8788275 C145.629395,11.4690853 141.656307,10.6105285 135.778315,7.2836212 L132.676041,5.13722936 C131.260969,4.33233243 130.172451,5.13722936 129.301638,6.53238406 L132.676041,11.2544461 L134.091113,12.059343 L135.506185,13.1325389 L134.907501,16.1911473 L136.866832,19.2497557 C137.68322,20.0546526 137.68322,21.1815083 136.866832,22.308364 L130.172451,20.3766114 L124.893143,16.7814051 L118.198763,15.9765081 C115.423044,16.2448071 113.735842,17.6399618 113.137158,19.3034155 L119.28728,23.1669208 C122.062999,24.5620755 122.933812,26.2255291 122.661683,28.6938797 C126.308215,28.6938797 127.124603,30.0890344 125.165272,32.2890861 L119.015151,33.093983 C117.05582,33.362282 113.953546,32.2890861 109.762755,30.0353746 C104.483447,27.298725 101.598876,27.567024 101.381173,30.8402716 L103.884762,34.7037769 L106.388352,39.4258389 C108.347683,45.8113546 107.476869,48.2797052 103.612633,47.4748083 L99.421842,45.0064577 L94.3602373,44.2015607 C91.2579634,45.5967154 91.2579634,48.065066 94.3602373,51.3919734 C98.5510283,55.5237776 100.23823,58.582386 99.9661006,59.9238809 L94.9044958,58.2604272 C93.2172943,57.4555303 92.4009064,57.6701695 92.1287771,59.3336232 L94.3058114,63.7337264 C95.993013,65.3971801 96.8094009,66.7923348 96.5916974,68.4557884 L90.7137048,65.9874378 C88.754374,64.0556852 86.7950431,63.5190872 85.1078415,64.0556852 L89.5707618,74.8413041 C89.5707618,78.4365105 88.754374,79.2414074 87.3937275,77.5779537 L82.9308072,72.8558917 C80.1550885,72.2656339 79.0121455,73.4461495 79.5564041,76.182799 L81.7334384,81.978057 C82.3321228,84.4464076 81.134754,87.7733149 78.1413318,91.3685213 L75.3656131,88.9001707 C74.5492252,87.505016 73.6784115,86.968418 72.5898944,87.236717 C71.1748221,87.505016 70.6305635,88.0416139 71.1748221,89.3831088 L73.1341529,92.4417172 C75.6377424,97.1637792 75.4200389,98.5052741 71.7190806,97.1637792 L68.3991034,90.9392429 C66.4397725,90.6709439 66.2220691,92.0124388 67.3105862,95.0710472 C68.3991034,98.1296555 67.9092706,100.276047 65.6233846,100.598006 C63.4463503,100.866305 61.1604643,97.5393978 59.1467076,90.0806862 C57.459506,90.8855831 56.6431182,93.1392945 56.6431182,96.1442431 C56.3709889,99.7394494 56.0444338,101.671202 55.2280459,102.529759 C54.2689102,103.93296 60.9183427,107.875757 55.2280459,113.146174 C50.8927064,114.814243 32.997595,122.613473 1.54271146,136.543864 L1.54270483,136.543849 C0.532738525,136.991132 0.0765933544,138.172466 0.523876071,139.182432 C0.635979278,139.435562 0.799413002,139.662661 1.00383174,139.849355 L69.0550465,202 L105.082131,199.171051 L112.048641,197.507597 L116.838116,192.785535 C119.341706,189.458628 122.117424,187.580535 125.219698,186.721978 L137.574368,183.126772 L138.662885,178.136411 L142.254992,180.873061 L146.717912,181.14136 L148.405114,179.746205 L149.820186,177.814452 L154.609661,177.009555 L164.35189,178.082751 L169.957753,187.473216 L171.04627,182.751154 L170.447586,177.546153 L167.345312,175.077803 L165.385981,171.214297 C163.42665,168.960586 160.324376,168.745947 157.004399,170.141102 C153.085737,171.804555 150.310019,172.609452 148.84052,171.804555 C149.11265,167.94105 152.214924,165.740998 158.092916,165.740998 C160.052247,165.740998 162.555836,166.545895 164.841722,167.672751 L170.447586,169.604504 C169.359069,164.614143 164.297464,161.340895 155.045068,159.087184 C144.105471,156.940792 139.424847,158.818885 141.329752,165.150741 L137.41109,166.545895 C137.138961,168.692287 136.322573,170.141102 134.036687,170.6777 L128.158695,171.536256 C127.886565,172.609452 127.56001,173.19971 126.743622,173.468009 L123.967904,174.272906 L121.790869,179.263267 L117.001394,179.853525 C114.715508,179.585226 113.409287,180.443782 112.538474,182.107236 L107.476869,179.638885 L105.517538,181.570638 C103.340504,181.302339 102.741819,179.316927 103.558207,175.507081 C104.646724,171.375277 106.660481,170.51672 109.16407,172.770432 C109.762755,170.838679 111.341105,170.302081 113.626991,170.838679 L119.232854,171.911875 C119.831538,171.106978 121.736443,170.248421 124.512162,169.980122 L130.390155,167.83373 C132.893744,165.901978 134.580946,163.111668 136.268147,159.301823 C133.982261,158.496926 133.165874,157.37007 133.982261,155.974915 C134.580946,154.579761 135.669463,153.828524 137.628794,154.311462 L137.356665,149.911359 C138.771737,150.716255 140.458938,150.501616 142.14614,149.106462 L146.60906,145.511255 L152.487053,145.779554 L157.766361,146.85275 C159.181433,142.130688 155.589327,139.662338 147.098893,140.252595 L138.935014,141.325791 L136.975684,143.794142 L134.199965,145.725894 L132.621615,138.642801 C134.036687,139.715997 135.397334,139.715997 137.084535,138.642801 L141.003197,135.906152 L147.153319,136.979348 L151.942794,136.174451 C148.296262,128.715739 141.003197,128.125481 129.573767,134.779296 C123.967904,138.106203 122.008573,140.842853 122.824961,143.633162 L125.001995,145.564915 C126.689196,146.369812 127.287881,146.96007 127.287881,147.711307 L124.784291,152.433369 L127.287881,155.491977 L121.682018,158.818885 L114.388953,159.892081 L111.286679,164.292184 L108.51096,164.882442 C107.694572,164.614143 106.823759,165.150741 106.551629,165.955637 L99.5851196,165.36538 L97.6257887,162.897029 L94.85007,160.643318 C92.8907391,159.838421 91.4756668,161.233575 90.0605946,163.701926 L87.2848758,169.228885 C82.0055677,165.36538 79.4475524,158.711565 79.991811,149.374761 L85.8698035,151.306513 L83.3662141,146.316152 L81.9511418,140.252595 C83.039659,134.725636 85.8698035,132.203626 89.7884653,132.203626 L89.7884653,120.61311 C92.564184,116.749605 93.707127,118.681357 93.707127,125.603471 C93.9792563,130.325533 93.4349977,137.784245 91.7477961,148.247905 L101.272321,131.398729 L102.088709,122.008265 C102.360838,117.608161 103.775911,115.944708 106.007371,117.87646 C107.966702,119.271615 108.51096,122.598522 107.694572,127.803523 L97.9523439,151.843111 C99.3674161,152.11141 101.326747,149.911359 103.830336,144.974657 L108.891941,135.047595 L112.266344,131.18409 L112.865029,126.193729 L117.05582,116.803264 C118.470892,117.071563 119.015151,118.949656 118.470892,122.008265 L117.382375,131.398729 L125.437402,107.35914 L127.396733,107.35914 L128.21312,122.544863 C130.499007,119.808213 132.131782,115.891048 132.403912,111.759244 L132.131782,104.568831 L132.730467,98.1833153 C136.649128,97.1101194 138.33633,99.846769 137.792071,106.446924 C137.193387,113.100739 137.792071,116.052027 139.207144,115.837388 C139.207144,108.110378 137.030109,83.9098096 139.642551,81.709758 L140.839919,78.4901703 C141.275326,79.4560466 141.601881,80.4755827 141.928437,81.4951188 C143.289083,85.7342427 144.649729,90.0270264 146.772338,94.0515111 C149.167076,98.5589339 150.364444,103.334656 150.41887,108.432336 C150.527722,118.681357 155.752604,125.335172 165.331555,128.55476 C183.727495,134.725636 200.490659,143.955121 216.546287,154.579761 C225.96196,160.804297 235.921892,166.223936 246.752638,169.711823 C249.74606,170.6777 252.739482,170.838679 255.460775,169.282545 C259.052881,167.243473 262.427285,164.936101 265.964965,162.78971 C266.618076,162.414091 266.618076,161.823833 266.672501,161.233575 C267.053482,157.584709 267.652167,153.935843 267.706593,150.286977 C267.761019,146.85275 264.386615,144.27708 264.713171,140.681874 C264.713171,140.628214 264.386615,140.574554 264.223338,140.574554 C262.48171,143.525843 262.264007,147.443008 258.236494,149.213781 C258.508623,147.603987 258.6719,146.316152 258.94403,145.081977 C259.216159,143.794142 259.705992,142.506307 259.814843,141.218472 C259.923695,139.984296 260.032547,138.696461 258.94403,137.569605 C257.039125,140.950173 255.732904,144.599039 251.378836,146.691771 C253.610296,141.75507 255.78733,137.569605 254.263406,132.149966 C251.97752,136.657389 249.528356,140.252595 244.793307,142.667286 C246.262805,139.286719 247.895581,136.49641 246.480508,132.686564 C244.902158,135.047595 244.630029,137.730585 241.636607,138.428162 C242.507421,135.423214 244.249048,132.579244 242.180866,129.305997 C241.255626,131.720688 240.221535,133.7061 238.534333,135.208574 C237.282538,136.38909 235.758614,138.857441 234.343542,137.784245 C232.819618,136.657389 235.105504,134.832956 235.867466,133.437801 C237.336964,130.647492 238.262204,127.857182 236.629428,124.261976 C234.942227,128.179141 233.527154,131.613368 229.173086,132.847543 C230.805861,126.408368 230.69701,125.442492 227.812439,120.774089 C225.96196,122.544863 224.819017,125.174193 221.444614,125.496151 C221.934447,123.564399 223.567222,122.222904 223.186241,120.291151 C222.369854,120.291151 222.261002,120.988729 221.880021,121.418007 C221.118059,122.115584 220.301671,123.18878 219.26758,122.544863 C218.015785,121.739966 219.322006,120.827749 219.594135,119.915533 C219.811838,119.217955 220.519374,118.520378 219.648561,117.339862 C217.525952,121.578986 216.437435,118.788677 215.076789,116.856924 C210.287313,110.04213 206.804058,102.529759 202.830971,95.2320266 C202.177861,94.0515111 201.579176,92.9783151 200.272956,92.3343976 C195.973313,90.2416656 193.25202,86.4854798 190.313024,82.9439333 C189.659913,82.1926962 189.496636,81.709758 190.585153,81.0658405 C195.973313,77.8999125 201.361473,74.626665 206.749633,71.3534174 C210.559443,69.0460462 214.423678,69.5826442 218.287914,71.2460978 C221.335762,72.5875927 223.784926,74.8413041 226.451793,76.6657372 C229.989474,79.080428 229.989474,79.1340878 227.213755,82.3000158 C227.159329,82.3536756 227.322607,82.6219745 227.377032,82.8366137 C228.737679,82.9975931 229.717344,82.1926962 230.805861,81.709758 C231.839953,81.2268199 233.091747,79.885325 234.071413,81.2804796 C234.887801,82.4609952 234.23469,83.8561498 233.309451,84.875686 C232.166508,86.1098613 231.077991,87.2903768 229.554067,88.9001707 C231.785527,88.8465109 233.200599,88.3099129 234.452394,87.4513562 C235.377633,86.8074386 236.302873,86.1635211 237.282538,85.5732633 C238.479907,84.8220262 239.89498,84.4464076 241.092348,85.2513045 C242.289717,86.0562015 241.364478,87.2903768 241.310052,88.3635727 C241.092348,91.1002223 239.241869,93.2466141 238.153352,95.9296039 C242.670698,94.9100678 244.466752,91.1002223 247.296896,88.4172325 C248.657543,91.2612017 246.915915,93.1392945 245.990676,95.3393462 C249.038524,95.1783668 249.47393,92.1734182 251.433261,90.9929027 C251.97752,93.4075935 251.97752,93.4075935 248.766394,101.349243 C253.174889,100.812645 254.535535,96.6271813 257.746661,94.2661502 C257.420106,98.7735731 255.025368,102.10048 252.739482,106.124965 C258.01879,104.300532 261.229916,101.241924 263.461376,97.0027998 C264.06006,95.7686245 264.549893,93.5149131 266.073817,94.31981 C267.543315,95.0710472 265.63841,96.5735215 265.094152,97.754037 C265.039726,97.8613566 265.094152,98.0759957 265.094152,98.2369751 C266.073817,98.8272329 266.618076,98.0759957 267.21676,97.5930576 C268.359703,96.6271813 269.230517,94.31981 270.591163,94.9637276 C272.006235,95.6613049 271.734106,98.0223359 271.67968,99.7394494 C271.625254,101.349243 271.516403,103.012697 271.080996,104.568831 C270.482311,106.876202 269.557072,109.129914 268.631832,111.920223 C272.768197,110.20311 275.217361,107.46646 276.904563,104.032233 C278.537338,100.705326 281.911741,99.2565113 284.252053,95.7149647 C284.633034,103.120017 284.415331,109.398213 280.551095,115.837388 C288.170715,113.315378 289.42251,105.642027 294.53854,101.456563 L291.436266,98.8272329 C289.857917,97.5393978 288.225141,96.3052225 287.027772,93.6758925 C293.014616,95.7686245 298.674905,97.6467174 302.920122,101.563882 C304.117491,100.115068 304.879453,98.3442947 305.369286,96.4125421 C305.804693,94.6954286 306.512229,93.2466141 307.491894,91.7441398 C310.213187,87.5586758 309.251664,79.2235208 304.607324,66.738675 Z M252.521779,66.6313554 C251.814242,67.5435719 251.215558,67.9191905 250.018189,67.0606338 C247.351322,65.1288811 243.813641,64.109345 242.888402,60.2994995 C242.725124,59.6019221 241.85431,59.3336232 241.2012,59.118984 C237.717945,57.8848087 234.289116,56.3823344 230.533732,56.0067158 C228.084569,55.6310972 225.689831,55.0944993 223.186241,55.8993962 C221.49904,56.4359942 220.410523,55.5237776 219.866264,53.9676436 C218.560044,50.2651177 218.99545,46.7772309 221.390188,43.5576432 C223.458371,40.7673338 225.580979,37.9770244 225.744257,34.3281583 C225.798683,32.9866634 226.723922,32.825684 227.975717,33.1476428 C230.42488,33.8452201 232.329785,35.4013542 234.23469,36.9574883 C236.955983,39.2648595 239.513999,41.8941895 243.487086,41.9478493 C243.922493,41.9478493 244.466752,42.3234679 244.793307,42.6454266 C248.439839,47.1528495 252.576204,51.4456332 254.154554,57.2408911 C255.025368,60.675118 254.644387,63.841046 252.521779,66.6313554 Z" id="Shape" fill-opacity="0.99379917"></path>
                    <path d="M225,79.5106383 C224.689922,79.8829787 224.379845,80.2553191 223.992248,80.6276596 C221.899225,82.8617021 219.496124,84.8297872 215,86 C216.24031,82.5957447 217.868217,79.1914894 219.031008,76 L225,79.5106383 Z" id="Path"></path>
                </g>
            </g>
        </g>
    </g>
</svg>