<?xml version="1.0" encoding="UTF-8"?>
<svg width="56px" height="58px" viewBox="0 0 56 58" version="1.1" xmlns="http://www.w3.org/2000/svg" xmlns:xlink="http://www.w3.org/1999/xlink">
    <!-- Generator: Sketch 54.1 (76490) - https://sketchapp.com -->
    <title>Staking rewards + earn eos@3x</title>
    <desc>Created with Sketch.</desc>
    <g id="Page-1" stroke="none" stroke-width="1" fill="none" fill-rule="evenodd">
        <g id="Staking-rewards-+-earn-eos" fill-rule="nonzero">
            <g id="Group" transform="translate(6.000000, 0.000000)">
                <g id="Path">
                    <polygon fill="#0D1B56" points="23 16 20 16 15 3 23 4"></polygon>
                    <polygon fill="#798ACE" points="30 16 22 16 22 0 36 3"></polygon>
                    <path d="M47,47.5 L47,36 C47,24.5 37.5,15 26,15 L24,15 C12.5,15 3,24.5 3,36 L3,47.5 C3,49 3,51 1.5,52 C0,53 0,55.7 0,56.5 L0,58 L50,58 L50,56.5 C50,55.7 50,53 48.5,52 C47,51 47,49 47,47.5 Z" fill="#798ACE"></path>
                    <path d="M47,47.5 L47,36 C47,24.5 37.5,15 26,15 C26,15 37,21 37,36 C37,55 36,57 21,57 C20,57 36,58 35,58 C34,58 50,58 50,58 L50,56.5 C50,55.7 50,53 48.5,52 C47,51 47,49 47,47.5 Z" fill="#0D1B56"></path>
                    <path d="M32.8,2.3 C32.1,7.8 28.9,12 25,12 C23.9,12 22.9,11.7 22,11.1 L22,16 L30,16 L36,3 L32.8,2.3 Z" fill="#0D1B56"></path>
                    <path d="M24,15 C21.6,15 19.3,15.4 17.2,16.2 C17.8,16.6 20,18 25,18 C30,18 32.2,16.6 32.8,16.2 C30.7,15.4 28.4,15 26,15 L24,15 Z" fill="#0D1B56"></path>
                    <path d="M31.9,14.6 C31.7,14.1 31.1,13.9 30.6,14.1 C30.6,14.1 28.7,15 25,15 C21.4,15 19.5,14.1 19.4,14.1 C18.9,13.9 18.3,14.1 18.1,14.5 C17.9,15 18.1,15.6 18.5,15.8 C18.6,15.8 20.8,16.9 24.9,16.9 C29,16.9 31.3,15.8 31.3,15.8 C31.9,15.6 32.1,15.1 31.9,14.6 Z" fill="#37474F"></path>
                    <path d="M31.9,14.6 C31.7,14.1 31.1,13.9 30.6,14.1 C30.6,14.1 28.7,15 25,15 C21.4,15 19.5,14.1 19.4,14.1 C18.9,13.9 18.3,14.1 18.1,14.5 C17.9,15 18.1,15.6 18.5,15.8 C18.6,15.8 20.8,16.9 24.9,16.9 C29,16.9 31.3,15.8 31.3,15.8 C31.9,15.6 32.1,15.1 31.9,14.6 Z" fill="#E6EBFF"></path>
                </g>
                <rect id="Rectangle" fill="#455A64" x="0" y="57" width="50" height="1"></rect>
            </g>
            <path d="M39.1,39.1 C39.1,39.2 39,39.2 39,39.3 C37.6,40.1 36.2,41 34.8,41.8 C33.7,42.4 32.7,43.1 31.6,43.7 C31.5,43.8 31.4,43.8 31.3,43.7 C28.8,42.2 26.4,40.7 23.9,39.3 C23.8,39.2 23.8,39.1 23.8,39 C24.5,35.9 25.1,32.7 25.8,29.6 L25.8,29.5 C25.9,28.7 26.2,28.1 26.7,27.5 C28.3,25.4 29.8,23.3 31.3,21.2 C31.4,21 31.5,21 31.6,21.2 C33.3,23.6 35,25.9 36.8,28.2 C36.9,28.3 36.9,28.4 36.9,28.5 C37.7,32 38.4,35.5 39.1,39.1 C39.1,39 39.1,39.1 39.1,39.1 Z M31.5,40.8 L31.5,40.8 C32.9,36.7 34.2,32.6 35.6,28.6 C35.6,28.5 35.6,28.4 35.5,28.3 C34.2,26.5 32.9,24.7 31.6,22.9 C31.5,22.8 31.5,22.8 31.4,22.9 C30.1,24.7 28.8,26.5 27.5,28.3 C27.4,28.4 27.4,28.5 27.4,28.7 C28.7,32.7 30.1,36.7 31.4,40.7 C31.4,40.7 31.4,40.8 31.5,40.8 Z M32.3,42 C32.4,42 32.4,42 32.3,42 C34.2,40.8 36,39.8 37.8,38.7 C37.9,38.6 37.9,38.6 37.9,38.5 C37.4,35.9 36.8,33.3 36.3,30.7 C36.3,30.6 36.3,30.5 36.2,30.4 C34.9,34.3 33.6,38.1 32.3,42 Z M30.6,42 C30.6,42 30.7,42 30.6,42 C29.4,38.1 28.1,34.3 26.8,30.5 C26.8,30.6 26.7,30.6 26.7,30.6 C26.2,33.2 25.6,35.8 25.1,38.5 C25.1,38.6 25.1,38.7 25.2,38.8 C26.5,39.6 27.7,40.3 29,41.1 C29.6,41.3 30.1,41.7 30.6,42 Z" id="Shape" fill="#FFFFFF"></path>
            <g id="TREX-token" transform="translate(0.000000, 37.000000)">
                <path d="M16.4891641,21 L1.51089613,21 C0.676423526,21 0,20.2247951 0,19.2684605 L0,16.7315395 C0,15.7752049 0.676423526,15 1.51089613,15 L16.4891039,15 C17.3235765,15 18,15.7752049 18,16.7315395 L18,19.2684605 C18,20.2247951 17.3235765,21 16.4891641,21 Z" id="Path" fill="#213CAE"></path>
                <g id="Group" transform="translate(0.000000, 15.000000)" fill="#0D1B56">
                    <path d="M16.4742742,4.28965909 L1.50953177,4.28965909 C0.675812709,4.28965909 0,3.52425 0,2.58 L0,4.25625 C0,5.20043182 0.675812709,5.96584091 1.50953177,5.96584091 L16.474214,5.96584091 C17.3078729,5.96584091 17.9837458,5.20043182 17.9837458,4.25625 L17.9837458,2.58 C17.9837458,3.52425 17.3079331,4.28965909 16.4742742,4.28965909 Z" id="Path"></path>
                    <path d="M16.4742742,0.0416590909 L8.99187291,0.0416590909 L8.99187291,5.96584091 L16.4742742,5.96584091 C17.3079331,5.96584091 17.983806,5.20043182 17.983806,4.25625 L17.983806,1.75138636 C17.9837458,0.807068182 17.3079331,0.0416590909 16.4742742,0.0416590909 Z" id="Path"></path>
                </g>
                <path d="M18.4891641,17 L3.51089613,17 C2.67642353,17 2,16.2248041 2,15.2684805 L2,12.7315195 C2,11.775265 2.67642353,11 3.51089613,11 L18.4891039,11 C19.3235162,11 20,11.7751959 20,12.7315195 L20,15.2684114 C20,16.2248041 19.3235765,17 18.4891641,17 Z" id="Path" fill="#798ACE"></path>
                <g id="Group" transform="translate(0.000000, 6.000000)" fill="#4D62BE">
                    <path d="M18.73737,9.58520115 L3.53363914,9.58520115 C2.6866055,9.58520115 2,8.87551149 2,8 L2,9.55422414 C2,10.4296724 2.6866055,11.1393621 3.53363914,11.1393621 L18.7373089,11.1393621 C19.5842813,11.1393621 20.270948,10.4296724 20.270948,9.55422414 L20.270948,8 C20.270948,8.87551149 19.5843425,9.58520115 18.73737,9.58520115 Z" id="Path"></path>
                    <path d="M18.446055,5.4725 L10.844159,5.4725 L10.844159,10.9654195 L18.446055,10.9654195 C19.2930275,10.9654195 19.9796942,10.2557299 19.9796942,9.38028161 L19.9796942,7.05770115 C19.979633,6.18218966 19.2930275,5.4725 18.446055,5.4725 Z" id="Path"></path>
                    <path d="M16.73737,5.5257931 L1.53363914,5.5257931 C0.686605505,5.5257931 0,4.81610345 0,3.94059195 L0,1.61807471 C0,0.742626437 0.686605505,0.0328735632 1.53363914,0.0328735632 L16.7373089,0.0328735632 C17.5843425,0.0328735632 18.270948,0.742563218 18.270948,1.61807471 L18.270948,3.94059195 C18.270948,4.81610345 17.5843425,5.5257931 16.73737,5.5257931 Z" id="Path"></path>
                </g>
                <g id="Group" transform="translate(0.000000, 6.000000)" fill="#0D1B56">
                    <path d="M16.4742742,4.28338636 L1.50953177,4.28338636 C0.675812709,4.28338636 0,3.51797727 0,2.57372727 L0,4.24997727 C0,5.19415909 0.675812709,5.95956818 1.50953177,5.95956818 L16.474214,5.95956818 C17.3078729,5.95956818 17.9837458,5.19415909 17.9837458,4.24997727 L17.9837458,2.57372727 C17.9837458,3.51797727 17.3079331,4.28338636 16.4742742,4.28338636 Z" id="Path"></path>
                    <path d="M16.4742742,0.0353863636 L8.99187291,0.0353863636 L8.99187291,5.95956818 L16.4742742,5.95956818 C17.3079331,5.95956818 17.983806,5.19415909 17.983806,4.24997727 L17.983806,1.74511364 C17.9837458,0.800795455 17.3079331,0.0353863636 16.4742742,0.0353863636 Z" id="Path"></path>
                </g>
                <path d="M18.4891641,6 L3.51089613,6 C2.67642353,6 2,5.22479514 2,4.26846055 L2,1.73153945 C2,0.775273916 2.67642353,0 3.51089613,0 L18.4891039,0 C19.3235162,0 20,0.775204861 20,1.73153945 L20,4.26846055 C20,5.22479514 19.3235765,6 18.4891641,6 Z" id="Path" fill="#798ACE"></path>
                <g id="Group" transform="translate(2.000000, 0.000000)" fill="#4D62BE">
                    <path d="M16.47558,4.29920455 L1.56072,4.29920455 C0.72978,4.29920455 0.05622,3.53379545 0.05622,2.58954545 L0.05622,4.26579545 C0.05622,5.20997727 0.72978,5.97538636 1.56072,5.97538636 L16.47552,5.97538636 C17.3064,5.97538636 17.98002,5.20997727 17.98002,4.26579545 L17.98002,2.58954545 C17.98002,3.53379545 17.30646,4.29920455 16.47558,4.29920455 Z" id="Path"></path>
                    <path d="M16.47558,0.0512045455 L9.01812,0.0512045455 L9.01812,5.97538636 L16.47558,5.97538636 C17.30646,5.97538636 17.98008,5.20997727 17.98008,4.26579545 L17.98008,1.76093182 C17.98002,0.816613636 17.30646,0.0512045455 16.47558,0.0512045455 Z" id="Path"></path>
                </g>
            </g>
            <g id="TREX-token" transform="translate(14.000000, 43.000000)">
                <path d="M16.4891641,15 L1.51089613,15 C0.676423526,15 0,14.2247951 0,13.2684605 L0,10.7315395 C0,9.77520486 0.676423526,9 1.51089613,9 L16.4891039,9 C17.3235765,9 18,9.77520486 18,10.7315395 L18,13.2684605 C18,14.2247951 17.3235765,15 16.4891641,15 Z" id="Path" fill="#213CAE"></path>
                <g id="Group" transform="translate(0.000000, 9.000000)" fill="#0D1B56">
                    <path d="M16.4742742,4.28965909 L1.50953177,4.28965909 C0.675812709,4.28965909 0,3.52425 0,2.58 L0,4.25625 C0,5.20043182 0.675812709,5.96584091 1.50953177,5.96584091 L16.474214,5.96584091 C17.3078729,5.96584091 17.9837458,5.20043182 17.9837458,4.25625 L17.9837458,2.58 C17.9837458,3.52425 17.3079331,4.28965909 16.4742742,4.28965909 Z" id="Path"></path>
                    <path d="M16.4742742,0.0416590909 L8.99187291,0.0416590909 L8.99187291,5.96584091 L16.4742742,5.96584091 C17.3079331,5.96584091 17.983806,5.20043182 17.983806,4.25625 L17.983806,1.75138636 C17.9837458,0.807068182 17.3079331,0.0416590909 16.4742742,0.0416590909 Z" id="Path"></path>
                </g>
                <path d="M18.4891641,11 L3.51089613,11 C2.67642353,11 2,10.2248041 2,9.26848048 L2,6.73151952 C2,5.77526499 2.67642353,5 3.51089613,5 L18.4891039,5 C19.3235162,5 20,5.77519594 20,6.73151952 L20,9.26841142 C20,10.2248041 19.3235765,11 18.4891641,11 Z" id="Path" fill="#798ACE"></path>
                <g id="Group" fill="#4D62BE">
                    <path d="M18.73737,9.58520115 L3.53363914,9.58520115 C2.6866055,9.58520115 2,8.87551149 2,8 L2,9.55422414 C2,10.4296724 2.6866055,11.1393621 3.53363914,11.1393621 L18.7373089,11.1393621 C19.5842813,11.1393621 20.270948,10.4296724 20.270948,9.55422414 L20.270948,8 C20.270948,8.87551149 19.5843425,9.58520115 18.73737,9.58520115 Z" id="Path"></path>
                    <path d="M18.446055,5.4725 L10.844159,5.4725 L10.844159,10.9654195 L18.446055,10.9654195 C19.2930275,10.9654195 19.9796942,10.2557299 19.9796942,9.38028161 L19.9796942,7.05770115 C19.979633,6.18218966 19.2930275,5.4725 18.446055,5.4725 Z" id="Path"></path>
                    <path d="M16.73737,5.5257931 L1.53363914,5.5257931 C0.686605505,5.5257931 0,4.81610345 0,3.94059195 L0,1.61807471 C0,0.742626437 0.686605505,0.0328735632 1.53363914,0.0328735632 L16.7373089,0.0328735632 C17.5843425,0.0328735632 18.270948,0.742563218 18.270948,1.61807471 L18.270948,3.94059195 C18.270948,4.81610345 17.5843425,5.5257931 16.73737,5.5257931 Z" id="Path"></path>
                </g>
                <g id="Group" fill="#0D1B56">
                    <path d="M16.4742742,4.28338636 L1.50953177,4.28338636 C0.675812709,4.28338636 0,3.51797727 0,2.57372727 L0,4.24997727 C0,5.19415909 0.675812709,5.95956818 1.50953177,5.95956818 L16.474214,5.95956818 C17.3078729,5.95956818 17.9837458,5.19415909 17.9837458,4.24997727 L17.9837458,2.57372727 C17.9837458,3.51797727 17.3079331,4.28338636 16.4742742,4.28338636 Z" id="Path"></path>
                    <path d="M16.4742742,0.0353863636 L8.99187291,0.0353863636 L8.99187291,5.95956818 L16.4742742,5.95956818 C17.3079331,5.95956818 17.983806,5.19415909 17.983806,4.24997727 L17.983806,1.74511364 C17.9837458,0.800795455 17.3079331,0.0353863636 16.4742742,0.0353863636 Z" id="Path"></path>
                </g>
            </g>
        </g>
    </g>
</svg>